<svg height='100px' width='100px'  fill="#000000" xmlns="http://www.w3.org/2000/svg" xmlns:xlink="http://www.w3.org/1999/xlink" version="1.1" x="0px" y="0px" viewBox="0 0 64 64" style="enable-background:new 0 0 64 64;" xml:space="preserve"><path d="M47,29.5c5.2,0,9.5-4.3,9.5-9.5c0-2.5-1-4.9-2.8-6.7c-1.6-1.6-3.7-2.6-5.8-2.8C47,4.5,41.8,0,35.6,0c-4.1,0-7.8,2-10.1,5.2  h-0.1c-3.9,0-7.4,2-9.3,5.2c-4.8,0.5-8.5,4.5-8.5,9.5c0,5.2,4.3,9.5,9.5,9.5h7.4v8.9l-0.1-0.2c-1.4-3.2-5.2-4.7-8.4-3.3  c-0.2,0.1-0.4,0.3-0.5,0.5c-0.1,0.2-0.1,0.5,0,0.8l6.7,15.4l1.5,3.6c-0.8,0.5-1.4,1.4-1.4,2.5v3.6c0,1.6,1.3,2.9,2.9,2.9h20.8  c1.6,0,2.9-1.3,2.9-2.9v-3.6c0-1.1-0.6-2-1.5-2.5c0.5-0.9,0.8-2,0.8-3.1V37.6c0-1-0.4-1.9-1.1-2.6c-0.7-0.7-1.6-1.1-2.6-1.1  c-0.8,0-1.4,0.2-2,0.6c-0.6-1.3-1.9-2.3-3.4-2.3c-0.9,0-1.7,0.3-2.4,0.9c-0.7-1-1.8-1.7-3.1-1.7c-0.6,0-1.2,0.2-1.7,0.5v-2.5H47z   M17.1,27.4c-4.2,0-7.6-3.4-7.6-7.6c0-4.1,3.2-7.4,7.2-7.6c0.3,0,0.7-0.2,0.8-0.5c1.5-2.9,4.5-4.6,7.9-4.6l0.5,0  c2,0.1,3.8,0.8,5.3,2.2l1.3-1.5c-1.4-1.2-3-2.1-4.8-2.4c2-2.2,4.8-3.5,7.8-3.5c5.2,0,9.5,3.6,10.3,8.6c-1.1,0.1-2,0.4-2.9,0.8  l0.9,1.7c0.8-0.4,1.8-0.7,3-0.7c2,0,3.9,0.8,5.3,2.2c1.4,1.4,2.2,3.3,2.2,5.3c0,4.2-3.4,7.6-7.6,7.6H31.8v-3.9c0-2-1.7-3.7-3.7-3.7  s-3.7,1.7-3.7,3.7v3.8H17.1z M46.8,61.1c0,0.5-0.4,1-1,1H25.1c-0.5,0-1-0.4-1-1v-3.6c0-0.5,0.4-1,1-1h20.8c0.5,0,1,0.4,1,1V61.1z   M33.6,33.5c1,0,1.7,0.8,1.7,1.7v9.5h1.9V36c0-1,0.8-1.7,1.7-1.7s1.7,0.8,1.7,1.7v8.7h1.9v-7.1c0-1,0.8-1.7,1.7-1.7  c0.5,0,0.9,0.2,1.3,0.5s0.5,0.8,0.5,1.3v14.3c0,0.8-0.2,1.6-0.6,2.2c-0.1,0.2-0.2,0.4-0.3,0.5H25.5l-7.9-18.3c2-0.4,4.1,0.7,5,2.6  l1.9,4.6c0.2,0.4,0.6,0.7,1.1,0.6c0.5-0.1,0.8-0.5,0.8-0.9V23.7c0-1,0.8-1.7,1.7-1.7c1,0,1.7,0.8,1.7,1.7v20.8h1.9v-9.2  C31.8,34.2,32.6,33.5,33.6,33.5z"></path></svg>